# xmcd CD database file
#
# Track frame offsets:
#	150
#	23053
#	45332
#	73213
#	97278
#	115963
#	137438
#	161140
#	183213
#	203423
#	224630
#	246595
#
# Disc length: 3683 seconds
#
# Revision: 0
# Processed by: cddbd v1.5PL3 Copyright (c) Steve Scherf et al.
# Submitted via: freeDB plugin v1.0
#
DISCID=b10e610c
DTITLE=ozaki - ozaki
DYEAR=1900
DGENRE=Rock
TTITLE0=禁猟区
TTITLE1=ＦＩＲＥ
TTITLE2=ＦＲＥＥＺＥ　ＭＯＯＮ
TTITLE3=ドーナツ・ショップ
TTITLE4=ＳＣＲＡＭＢＬＩＮＧ　ＲＯＣＫ’Ｎ’ＲＯＬＬ
TTITLE5=群集の中の猫
TTITLE6=シェリー
TTITLE7=音のない部屋
TTITLE8=ふたつの心
TTITLE9=失くした１／２
TTITLE10=米軍キャンプ
TTITLE11=卒業
EXTD=
EXTT0=
EXTT1=
EXTT2=
EXTT3=
EXTT4=
EXTT5=
EXTT6=
EXTT7=
EXTT8=
EXTT9=
EXTT10=
EXTT11=
PLAYORDER=
